<?xml version="1.0" encoding="utf-8"?>
<!-- Generator: Adobe Illustrator 15.0.0, SVG Export Plug-In . SVG Version: 6.00 Build 0)  -->
<!DOCTYPE svg PUBLIC "-//W3C//DTD SVG 1.1//EN" "http://www.w3.org/Graphics/SVG/1.1/DTD/svg11.dtd">
<svg version="1.1" id="Layer_1" xmlns="http://www.w3.org/2000/svg" xmlns:xlink="http://www.w3.org/1999/xlink" x="0px" y="0px"
	 width="21.422px" height="43.908px" viewBox="0 0 21.422 43.908" enable-background="new 0 0 21.422 43.908" xml:space="preserve">
<g>
	<path fill="#CFD8DC" d="M10.711,21.422C4.799,21.422,0,16.623,0,10.711C0,4.8,4.799,0,10.711,0c5.914,0,10.711,4.8,10.711,10.711
		C21.422,16.623,16.625,21.422,10.711,21.422z M1.785,10.711c0,4.925,4.002,8.929,8.926,8.929s8.926-4.004,8.926-8.929
		c0-4.922-4.002-8.926-8.926-8.926S1.785,5.789,1.785,10.711z M13.444,11.367c-0.726,0.418-1.171,0.685-1.171,1.129v0.447
		c0,0.25-0.195,0.445-0.446,0.445H9.596c-0.25,0-0.444-0.195-0.444-0.445v-0.949c0-1.715,1.228-2.26,2.217-2.705
		c0.837-0.391,1.353-0.653,1.353-1.282c0-0.81-1.018-1.408-1.938-1.408c-0.488,0-1.004,0.151-1.324,0.377
		C9.151,7.185,8.858,7.491,8.342,8.134C8.26,8.242,8.133,8.3,7.993,8.3c-0.098,0-0.194-0.027-0.265-0.082L6.221,7.072
		c-0.18-0.141-0.223-0.406-0.098-0.602c1.145-1.799,2.748-2.679,4.867-2.679c2.288,0,4.854,1.813,4.854,4.24
		C15.844,10.015,14.463,10.795,13.444,11.367z M12.273,17.183c0,0.252-0.195,0.446-0.446,0.446H9.596
		c-0.25,0-0.444-0.194-0.444-0.446v-2.23c0-0.252,0.194-0.444,0.444-0.444h2.231c0.251,0,0.446,0.192,0.446,0.444V17.183z"/>
</g>
</svg>
