<?xml version="1.0" encoding="utf-8"?>
<!-- Generator: Adobe Illustrator 15.0.0, SVG Export Plug-In . SVG Version: 6.00 Build 0)  -->
<!DOCTYPE svg PUBLIC "-//W3C//DTD SVG 1.1//EN" "http://www.w3.org/Graphics/SVG/1.1/DTD/svg11.dtd">
<svg version="1.1" id="Layer_1" xmlns="http://www.w3.org/2000/svg" xmlns:xlink="http://www.w3.org/1999/xlink" x="0px" y="0px"
	 width="22.484px" height="40.382px" viewBox="0 0 22.484 40.382" enable-background="new 0 0 22.484 40.382" xml:space="preserve">
<g>
	<path fill="#FFFFFF" d="M21.522,10.378c-0.07,0.084-0.184,0.141-0.295,0.154c-0.014,0-0.026,0-0.042,0
		c-0.109,0-0.209-0.027-0.293-0.098l-9.649-8.051l-9.651,8.051c-0.098,0.066-0.209,0.109-0.335,0.098
		c-0.109-0.014-0.223-0.07-0.293-0.154L0.099,9.349C-0.053,9.166-0.027,8.873,0.156,8.72l10.025-8.354
		c0.586-0.488,1.534-0.488,2.12,0l3.403,2.846V0.492c0-0.25,0.195-0.445,0.446-0.445h2.678c0.251,0,0.446,0.195,0.446,0.445v5.691
		l3.054,2.535c0.182,0.152,0.209,0.445,0.056,0.631L21.522,10.378z M19.277,17.003c0,0.488-0.404,0.895-0.895,0.895h-5.354v-5.355
		h-3.57v5.355H4.103c-0.486,0-0.893-0.404-0.893-0.895V10.31c0-0.027,0.014-0.057,0.014-0.084l8.021-6.609l8.019,6.609
		c0.016,0.027,0.016,0.057,0.016,0.084v6.693H19.277z"/>
</g>
</svg>
