<?xml version="1.0" encoding="utf-8"?>
<!-- Generator: Adobe Illustrator 15.0.0, SVG Export Plug-In . SVG Version: 6.00 Build 0)  -->
<!DOCTYPE svg PUBLIC "-//W3C//DTD SVG 1.1//EN" "http://www.w3.org/Graphics/SVG/1.1/DTD/svg11.dtd">
<svg version="1.1" id="Layer_1" xmlns="http://www.w3.org/2000/svg" xmlns:xlink="http://www.w3.org/1999/xlink" x="0px" y="0px"
	 width="800px" height="600px" viewBox="0 0 800 600" enable-background="new 0 0 800 600" xml:space="preserve">
<g>
	<path fill="#CFD8DC" d="M453.788,320.872c-15.395,8.88-24.871,14.508-24.871,23.982v9.475c0,5.331-4.146,9.479-9.475,9.479h-47.376
		c-5.329,0-9.475-4.147-9.475-9.479v-20.133c0-36.421,26.056-47.966,47.079-57.439c17.768-8.293,28.723-13.921,28.723-27.242
		c0-17.175-21.618-29.906-41.158-29.906c-10.363,0-21.318,3.256-28.131,7.989c-6.513,4.447-12.729,10.959-23.684,24.582
		c-1.775,2.369-4.446,3.553-7.403,3.553c-2.073,0-4.146-0.594-5.629-1.777l-31.979-24.282c-3.851-2.957-4.735-8.581-2.072-12.732
		c24.282-38.19,58.333-56.85,103.337-56.85c48.561,0,103.041,38.495,103.041,90.016
		C504.716,292.151,475.399,308.729,453.788,320.872z M428.917,444.342c0,5.331-4.146,9.479-9.475,9.479h-47.376
		c-5.329,0-9.475-4.147-9.475-9.479v-47.374c0-5.329,4.146-9.477,9.475-9.477h47.376c5.329,0,9.475,4.147,9.475,9.477V444.342z"/>
</g>
<g>
	<polygon fill="none" points="656,56.455 149.872,564 178.12,564 656,84.782 	"/>
	<polygon fill="none" points="616.743,52 144,526.066 144,554.394 644.991,52 	"/>
	<polygon fill="none" points="144,564 147.525,564 144,560.482 	"/>
	<polygon fill="none" points="573.043,52 144,482.243 144,510.572 601.293,52 	"/>
	<polygon fill="none" points="223.447,52 144,131.669 144,159.997 251.697,52 	"/>
	<polygon fill="none" points="441.944,52 144,350.777 144,379.106 470.192,52 	"/>
	<polygon fill="none" points="485.644,52 144,394.601 144,422.928 513.894,52 	"/>
	<polygon fill="none" points="144,52 144,72.353 164.295,52 	"/>
	<polygon fill="none" points="179.748,52 144,87.846 144,116.175 207.996,52 	"/>
	<polygon fill="none" points="529.344,52 144,438.423 144,466.75 557.592,52 	"/>
	<polygon fill="none" points="656,275.564 368.37,564 396.617,564 656,303.891 	"/>
	<polygon fill="none" points="656,319.387 412.07,564 440.318,564 656,347.714 	"/>
	<polygon fill="none" points="354.545,52 144,263.135 144,291.462 382.795,52 	"/>
	<polygon fill="none" points="310.846,52 144,219.312 144,247.641 339.094,52 	"/>
	<polygon fill="none" points="630.568,564 656,564 656,538.498 	"/>
	<polygon fill="none" points="267.146,52 144,175.49 144,203.818 295.396,52 	"/>
	<polygon fill="none" points="656,494.675 586.87,564 615.115,564 656,523 	"/>
	<polygon fill="none" points="656,363.209 455.77,564 484.018,564 656,391.536 	"/>
	<polygon fill="none" points="656,407.03 499.468,564 527.718,564 656,435.356 	"/>
	<polygon fill="none" points="656,450.853 543.169,564 571.417,564 656,479.18 	"/>
	<polygon fill="none" points="656,144.098 237.271,564 265.521,564 656,172.426 	"/>
	<polygon fill="none" points="656,231.741 324.671,564 352.919,564 656,260.07 	"/>
	<polygon fill="none" points="656,187.921 280.97,564 309.218,564 656,216.248 	"/>
	<polygon fill="none" points="398.243,52 144,306.957 144,335.284 426.493,52 	"/>
	<polygon fill="none" points="656,100.277 193.573,564 221.82,564 656,128.604 	"/>
	<polygon fill="#CFD8DC" points="656,52 644.991,52 144,554.394 144,560.482 147.525,564 149.872,564 656,56.455 	"/>
	<polygon fill="#CFD8DC" points="656,84.782 178.12,564 193.573,564 656,100.277 	"/>
	<polygon fill="#CFD8DC" points="656,128.604 221.82,564 237.271,564 656,144.098 	"/>
	<polygon fill="#CFD8DC" points="656,172.426 265.521,564 280.97,564 656,187.921 	"/>
	<polygon fill="#CFD8DC" points="656,216.248 309.218,564 324.671,564 656,231.741 	"/>
	<polygon fill="#CFD8DC" points="656,260.07 352.919,564 368.37,564 656,275.564 	"/>
	<polygon fill="#CFD8DC" points="656,303.891 396.617,564 412.07,564 656,319.387 	"/>
	<polygon fill="#CFD8DC" points="656,347.714 440.318,564 455.77,564 656,363.209 	"/>
	<polygon fill="#CFD8DC" points="656,391.536 484.018,564 499.468,564 656,407.03 	"/>
	<polygon fill="#CFD8DC" points="656,435.356 527.718,564 543.169,564 656,450.853 	"/>
	<polygon fill="#CFD8DC" points="656,479.18 571.417,564 586.87,564 656,494.675 	"/>
	<polygon fill="#CFD8DC" points="656,523 615.115,564 630.568,564 656,538.498 	"/>
	<polygon fill="#CFD8DC" points="601.293,52 144,510.572 144,526.066 616.743,52 	"/>
	<polygon fill="#CFD8DC" points="557.592,52 144,466.75 144,482.243 573.043,52 	"/>
	<polygon fill="#CFD8DC" points="513.894,52 144,422.928 144,438.423 529.344,52 	"/>
	<polygon fill="#CFD8DC" points="470.192,52 144,379.106 144,394.601 485.644,52 	"/>
	<polygon fill="#CFD8DC" points="426.493,52 144,335.284 144,350.777 441.944,52 	"/>
	<polygon fill="#CFD8DC" points="382.795,52 144,291.462 144,306.957 398.243,52 	"/>
	<polygon fill="#CFD8DC" points="339.094,52 144,247.641 144,263.135 354.545,52 	"/>
	<polygon fill="#CFD8DC" points="295.396,52 144,203.818 144,219.312 310.846,52 	"/>
	<polygon fill="#CFD8DC" points="251.697,52 144,159.997 144,175.49 267.146,52 	"/>
	<polygon fill="#CFD8DC" points="207.996,52 144,116.175 144,131.669 223.447,52 	"/>
	<polygon fill="#CFD8DC" points="164.295,52 144,72.353 144,87.846 179.748,52 	"/>
</g>
</svg>
