<?xml version="1.0" encoding="UTF-8" standalone="no"?>
<!-- Created with Inkscape (http://www.inkscape.org/) -->

<svg
   xmlns:dc="http://purl.org/dc/elements/1.1/"
   xmlns:cc="http://creativecommons.org/ns#"
   xmlns:rdf="http://www.w3.org/1999/02/22-rdf-syntax-ns#"
   xmlns:svg="http://www.w3.org/2000/svg"
   xmlns="http://www.w3.org/2000/svg"
   xmlns:sodipodi="http://sodipodi.sourceforge.net/DTD/sodipodi-0.dtd"
   xmlns:inkscape="http://www.inkscape.org/namespaces/inkscape"
   id="svg3355"
   version="1.1"
   inkscape:version="0.91 r13725"
   xml:space="preserve"
   width="389.88278"
   height="446"
   viewBox="0 0 389.88278 446"
   sodipodi:docname="tarantool1.svg"><metadata
     id="metadata3361"><rdf:RDF><cc:Work
         rdf:about=""><dc:format>image/svg+xml</dc:format><dc:type
           rdf:resource="http://purl.org/dc/dcmitype/StillImage" /><dc:title></dc:title></cc:Work></rdf:RDF></metadata><defs
     id="defs3359" /><sodipodi:namedview
     pagecolor="#ffffff"
     bordercolor="#666666"
     borderopacity="1"
     objecttolerance="10"
     gridtolerance="10"
     guidetolerance="10"
     inkscape:pageopacity="0"
     inkscape:pageshadow="2"
     inkscape:window-width="1280"
     inkscape:window-height="772"
     id="namedview3357"
     showgrid="false"
     inkscape:zoom="0.99562346"
     inkscape:cx="362.90698"
     inkscape:cy="404.59111"
     inkscape:window-x="0"
     inkscape:window-y="0"
     inkscape:window-maximized="0"
     inkscape:current-layer="g3363"
     fit-margin-top="0"
     fit-margin-left="0"
     fit-margin-right="0"
     fit-margin-bottom="0" /><g
     id="g3363"
     inkscape:groupmode="layer"
     inkscape:label="ink_ext_XXXXXX"
     transform="matrix(1.25,0,0,-1.25,-5.4999999e-6,446)"><g
       id="g3442"
       transform="matrix(1.3694212,0,0,1.3694212,-701.14365,-13.051908)"><path
         d="m 735.802,207.843 -105.957,61.174 c -2.452,1.416 -5.473,1.416 -7.926,0 L 515.963,207.843 C 513.511,206.427 512,203.811 512,200.979 l 0,-122.3481 c 0,-2.8309 1.511,-5.4477 3.963,-6.8637 L 621.919,10.593 c 2.453,-1.41605 5.474,-1.41605 7.926,0 l 105.957,61.1742 c 2.452,1.416 3.963,4.0328 3.963,6.8637 l 0,122.3481 c 0,2.832 -1.511,5.448 -3.963,6.864"
         style="fill:#302f2f;fill-opacity:1;fill-rule:nonzero;stroke:none"
         id="path3395"
         inkscape:connector-curvature="0" /><path
         d="m 681.988,169.848 -41.897,0 0,-115.3609 -28.137,0 0,115.3609 -42.101,0 0,24.35 112.135,0 0,-24.35"
         style="fill:#ffffff;fill-opacity:1;fill-rule:nonzero;stroke:none"
         id="path3397"
         inkscape:connector-curvature="0" /><path
         d="m 577.162,200.23 -2.792,0 0,10.842 -3.575,0 0,2.324 9.943,0 0,-2.324 -3.576,0 0,-10.842"
         style="fill:#ffffff;fill-opacity:1;fill-rule:nonzero;stroke:none"
         id="path3399"
         inkscape:connector-curvature="0" /><path
         d="m 589.203,205.705 c -0.882,2.84 -1.379,4.446 -1.491,4.818 -0.111,0.372 -0.19,0.666 -0.238,0.882 -0.198,-0.768 -0.766,-2.669 -1.702,-5.7 l 3.431,0 z m 1.621,-5.475 -0.954,3.134 -4.8,0 -0.955,-3.134 -3.008,0 4.647,13.22 3.413,0 4.664,-13.22 -3.007,0"
         style="fill:#ffffff;fill-opacity:1;fill-rule:nonzero;stroke:none"
         id="path3401"
         inkscape:connector-curvature="0" /><path
         d="m 598.281,207.551 0.9,0 c 0.883,0 1.534,0.147 1.954,0.442 0.42,0.293 0.63,0.756 0.63,1.386 0,0.625 -0.214,1.069 -0.644,1.333 -0.428,0.264 -1.093,0.396 -1.994,0.396 l -0.846,0 0,-3.557 z m 0,-2.269 0,-5.052 -2.792,0 0,13.166 3.836,0 c 1.789,0 3.113,-0.326 3.971,-0.977 0.859,-0.652 1.288,-1.641 1.288,-2.968 0,-0.774 -0.213,-1.463 -0.639,-2.067 -0.427,-0.603 -1.03,-1.076 -1.81,-1.418 1.981,-2.959 3.272,-4.871 3.872,-5.736 l -3.097,0 -3.144,5.052 -1.485,0"
         style="fill:#ffffff;fill-opacity:1;fill-rule:nonzero;stroke:none"
         id="path3403"
         inkscape:connector-curvature="0" /><path
         d="m 614.103,205.705 c -0.883,2.84 -1.38,4.446 -1.49,4.818 -0.112,0.372 -0.191,0.666 -0.24,0.882 -0.197,-0.768 -0.764,-2.669 -1.701,-5.7 l 3.431,0 z m 1.621,-5.475 -0.955,3.134 -4.8,0 -0.954,-3.134 -3.008,0 4.647,13.22 3.413,0 4.665,-13.22 -3.008,0"
         style="fill:#ffffff;fill-opacity:1;fill-rule:nonzero;stroke:none"
         id="path3405"
         inkscape:connector-curvature="0" /><path
         d="m 632.068,200.23 -3.547,0 -5.728,9.959 -0.081,0 c 0.114,-1.759 0.171,-3.013 0.171,-3.764 l 0,-6.195 -2.494,0 0,13.166 3.521,0 5.718,-9.861 0.063,0 c -0.09,1.711 -0.135,2.92 -0.135,3.629 l 0,6.232 2.512,0 0,-13.166"
         style="fill:#ffffff;fill-opacity:1;fill-rule:nonzero;stroke:none"
         id="path3407"
         inkscape:connector-curvature="0" /><path
         d="m 639.587,200.23 -1.53,0 0,11.806 -4.17,0 0,1.36 9.87,0 0,-1.36 -4.17,0 0,-11.806"
         style="fill:#ffffff;fill-opacity:1;fill-rule:nonzero;stroke:none"
         id="path3409"
         inkscape:connector-curvature="0" /><path
         d="m 646.675,206.831 c 0,-1.783 0.379,-3.136 1.139,-4.058 0.76,-0.921 1.862,-1.382 3.309,-1.382 1.459,0 2.561,0.46 3.305,1.378 0.745,0.919 1.117,2.273 1.117,4.062 0,1.771 -0.371,3.114 -1.112,4.03 -0.741,0.915 -1.839,1.373 -3.292,1.373 -1.458,0 -2.567,-0.461 -3.327,-1.382 -0.76,-0.922 -1.139,-2.263 -1.139,-4.021 z m 10.491,0 c 0,-2.108 -0.533,-3.764 -1.598,-4.972 -1.066,-1.206 -2.547,-1.809 -4.445,-1.809 -1.939,0 -3.435,0.592 -4.489,1.778 -1.054,1.186 -1.58,2.859 -1.58,5.021 0,2.143 0.528,3.805 1.585,4.984 1.057,1.18 2.558,1.77 4.502,1.77 1.892,0 3.368,-0.601 4.431,-1.801 1.063,-1.201 1.594,-2.858 1.594,-4.971"
         style="fill:#ffffff;fill-opacity:1;fill-rule:nonzero;stroke:none"
         id="path3411"
         inkscape:connector-curvature="0" /><path
         d="m 661.039,206.831 c 0,-1.783 0.379,-3.136 1.139,-4.058 0.76,-0.921 1.862,-1.382 3.31,-1.382 1.459,0 2.56,0.46 3.304,1.378 0.745,0.919 1.118,2.273 1.118,4.062 0,1.771 -0.372,3.114 -1.113,4.03 -0.741,0.915 -1.839,1.373 -3.292,1.373 -1.458,0 -2.567,-0.461 -3.327,-1.382 -0.76,-0.922 -1.139,-2.263 -1.139,-4.021 z m 10.492,0 c 0,-2.108 -0.534,-3.764 -1.599,-4.972 -1.065,-1.206 -2.547,-1.809 -4.444,-1.809 -1.94,0 -3.436,0.592 -4.49,1.778 -1.053,1.186 -1.58,2.859 -1.58,5.021 0,2.143 0.529,3.805 1.585,4.984 1.057,1.18 2.558,1.77 4.502,1.77 1.892,0 3.368,-0.601 4.431,-1.801 1.063,-1.201 1.595,-2.858 1.595,-4.971"
         style="fill:#ffffff;fill-opacity:1;fill-rule:nonzero;stroke:none"
         id="path3413"
         inkscape:connector-curvature="0" /><path
         d="m 674.466,200.23 0,13.166 1.53,0 0,-11.78 5.809,0 0,-1.386 -7.339,0"
         style="fill:#ffffff;fill-opacity:1;fill-rule:nonzero;stroke:none"
         id="path3415"
         inkscape:connector-curvature="0" /></g></g></svg>