<?xml version="1.0" encoding="utf-8"?>
<!-- Generator: Adobe Illustrator 15.0.0, SVG Export Plug-In . SVG Version: 6.00 Build 0)  -->
<!DOCTYPE svg PUBLIC "-//W3C//DTD SVG 1.1//EN" "http://www.w3.org/Graphics/SVG/1.1/DTD/svg11.dtd">
<svg version="1.1" id="Layer_1" xmlns="http://www.w3.org/2000/svg" xmlns:xlink="http://www.w3.org/1999/xlink" x="0px" y="0px"
	 width="59.005px" height="59.008px" viewBox="0 0 59.005 59.008" enable-background="new 0 0 59.005 59.008" xml:space="preserve">
<g>
	<path fill="#CFD8DC" d="M58.977,2.47l-8.43,50.578c-0.099,0.625-0.494,1.152-1.054,1.481c-0.296,0.165-0.659,0.264-1.021,0.264
		c-0.263,0-0.527-0.066-0.791-0.165l-14.917-6.092l-7.969,9.714c-0.395,0.494-0.988,0.757-1.613,0.757
		c-0.23,0-0.494-0.033-0.725-0.132c-0.823-0.296-1.383-1.086-1.383-1.976V45.408l28.45-34.871L14.326,40.996L1.319,35.662
		c-0.757-0.296-1.251-0.988-1.317-1.811c-0.033-0.791,0.362-1.548,1.054-1.943L55.849,0.296C56.178,0.099,56.54,0,56.902,0
		c0.428,0,0.856,0.132,1.186,0.362C58.779,0.856,59.108,1.646,58.977,2.47z"/>
</g>
</svg>
